<svg id="visual" viewBox="0 0 900 600" width="900" height="600" xmlns="http://www.w3.org/2000/svg" xmlns:xlink="http://www.w3.org/1999/xlink" version="1.1"><rect x="0" y="0" width="900" height="600" fill="#171717"></rect><defs><linearGradient id="grad1_0" x1="33.3%" y1="0%" x2="100%" y2="100%"><stop offset="20%" stop-color="#171717" stop-opacity="1"></stop><stop offset="80%" stop-color="#171717" stop-opacity="1"></stop></linearGradient></defs><defs><linearGradient id="grad2_0" x1="0%" y1="0%" x2="66.7%" y2="100%"><stop offset="20%" stop-color="#171717" stop-opacity="1"></stop><stop offset="80%" stop-color="#171717" stop-opacity="1"></stop></linearGradient></defs><g transform="translate(900, 0)"><path d="M0 405.6C-57.9 405.4 -115.8 405.2 -155.2 374.7C-194.7 344.3 -215.7 283.5 -239.7 239.7C-263.7 195.9 -290.6 169.1 -318.7 132C-346.9 94.9 -376.3 47.5 -405.6 0L0 0Z" fill="#151515"></path></g><g transform="translate(0, 600)"><path d="M0 -405.6C39.3 -367.7 78.5 -329.7 130.9 -316C183.2 -302.2 248.7 -312.6 286.8 -286.8C325 -261.1 335.8 -199.2 351.1 -145.4C366.3 -91.6 386 -45.8 405.6 0L0 0Z" fill="#151515"></path></g></svg>